<svg width="750" height="350" xmlns="http://www.w3.org/2000/svg" xmlns:xlink="http://www.w3.org/1999/xlink"><defs><filter x="-115.3%" y="-115.3%" width="330.6%" height="330.6%" filterUnits="objectBoundingBox" id="prefix__d"><feGaussianBlur stdDeviation="1.537" in="SourceGraphic"/></filter><filter x="-115.3%" y="-115.3%" width="330.6%" height="330.6%" filterUnits="objectBoundingBox" id="prefix__e"><feGaussianBlur stdDeviation="1.537" in="SourceGraphic"/></filter><filter x="-115.3%" y="-115.3%" width="330.6%" height="330.6%" filterUnits="objectBoundingBox" id="prefix__f"><feGaussianBlur stdDeviation="1.537" in="SourceGraphic"/></filter><filter x="-115.3%" y="-115.3%" width="330.6%" height="330.6%" filterUnits="objectBoundingBox" id="prefix__g"><feGaussianBlur stdDeviation="1.537" in="SourceGraphic"/></filter><filter x="-115.3%" y="-115.3%" width="330.6%" height="330.6%" filterUnits="objectBoundingBox" id="prefix__h"><feGaussianBlur stdDeviation="1.537" in="SourceGraphic"/></filter><filter x="-3.5%" y="-17.1%" width="106.9%" height="134.3%" filterUnits="objectBoundingBox" id="prefix__m"><feGaussianBlur stdDeviation="25" in="SourceAlpha" result="shadowBlurInner1"/><feOffset dy="-2" in="shadowBlurInner1" result="shadowOffsetInner1"/><feComposite in="shadowOffsetInner1" in2="SourceAlpha" operator="arithmetic" k2="-1" k3="1" result="shadowInnerInner1"/><feColorMatrix values="0 0 0 0 0.681285511 0 0 0 0 0.704723584 0 0 0 0 1 0 0 0 0.5 0" in="shadowInnerInner1"/></filter><filter x="-30.3%" y="-35.9%" width="160.7%" height="171.7%" filterUnits="objectBoundingBox" id="prefix__p"><feGaussianBlur stdDeviation="25" in="SourceAlpha" result="shadowBlurInner1"/><feOffset dy="-2" in="shadowBlurInner1" result="shadowOffsetInner1"/><feComposite in="shadowOffsetInner1" in2="SourceAlpha" operator="arithmetic" k2="-1" k3="1" result="shadowInnerInner1"/><feColorMatrix values="0 0 0 0 0.681285511 0 0 0 0 0.704723584 0 0 0 0 1 0 0 0 0.5 0" in="shadowInnerInner1"/></filter><filter x="-30.3%" y="-35.9%" width="160.7%" height="171.7%" filterUnits="objectBoundingBox" id="prefix__t"><feGaussianBlur stdDeviation="25" in="SourceAlpha" result="shadowBlurInner1"/><feOffset dy="-2" in="shadowBlurInner1" result="shadowOffsetInner1"/><feComposite in="shadowOffsetInner1" in2="SourceAlpha" operator="arithmetic" k2="-1" k3="1" result="shadowInnerInner1"/><feColorMatrix values="0 0 0 0 0.681285511 0 0 0 0 0.704723584 0 0 0 0 1 0 0 0 0.5 0" in="shadowInnerInner1"/></filter><filter x="-115.3%" y="-115.3%" width="330.6%" height="330.6%" filterUnits="objectBoundingBox" id="prefix__u"><feGaussianBlur stdDeviation="1.537" in="SourceGraphic"/></filter><filter x="-115.3%" y="-115.3%" width="330.6%" height="330.6%" filterUnits="objectBoundingBox" id="prefix__v"><feGaussianBlur stdDeviation="1.537" in="SourceGraphic"/></filter><filter x="-115.3%" y="-115.3%" width="330.6%" height="330.6%" filterUnits="objectBoundingBox" id="prefix__w"><feGaussianBlur stdDeviation="1.537" in="SourceGraphic"/></filter><filter x="-115.3%" y="-115.3%" width="330.6%" height="330.6%" filterUnits="objectBoundingBox" id="prefix__x"><feGaussianBlur stdDeviation="1.537" in="SourceGraphic"/></filter><filter x="-115.3%" y="-115.3%" width="330.6%" height="330.6%" filterUnits="objectBoundingBox" id="prefix__y"><feGaussianBlur stdDeviation="1.537" in="SourceGraphic"/></filter><filter x="-115.3%" y="-115.3%" width="330.6%" height="330.6%" filterUnits="objectBoundingBox" id="prefix__z"><feGaussianBlur stdDeviation="1.537" in="SourceGraphic"/></filter><filter x="-115.3%" y="-115.3%" width="330.6%" height="330.6%" filterUnits="objectBoundingBox" id="prefix__A"><feGaussianBlur stdDeviation="1.537" in="SourceGraphic"/></filter><filter x="0%" y="0%" width="100%" height="100%" filterUnits="objectBoundingBox" id="prefix__B"><feGaussianBlur in="SourceGraphic"/></filter><filter x="0%" y="0%" width="100%" height="100%" filterUnits="objectBoundingBox" id="prefix__C"><feGaussianBlur in="SourceGraphic"/></filter><filter x="0%" y="0%" width="100%" height="100%" filterUnits="objectBoundingBox" id="prefix__D"><feGaussianBlur in="SourceGraphic"/></filter><linearGradient x1="0%" y1="39.111%" x2="100%" y2="60.889%" id="prefix__b"><stop stop-color="#21D29B" offset="0%"/><stop stop-color="#1EC491" offset="100%"/></linearGradient><linearGradient x1="100%" y1="0%" x2="76.483%" y2="24.573%" id="prefix__i"><stop stop-color="#D8FFF3" offset="0%"/><stop stop-color="#6DFFD0" offset="100%"/></linearGradient><linearGradient x1="100%" y1="0%" x2="76.483%" y2="24.573%" id="prefix__j"><stop stop-color="#D8FFF3" offset="0%"/><stop stop-color="#6DFFD1" offset="100%"/></linearGradient><linearGradient x1="50%" y1="45.153%" x2="56.194%" y2="50.979%" id="prefix__k"><stop stop-color="#AEFFE5" offset="0%"/><stop stop-color="#51FFCC" offset="100%"/></linearGradient><linearGradient x1="51.191%" y1="-35.266%" x2="56.194%" y2="67.238%" id="prefix__n"><stop stop-color="#AEFFE6" offset="0%"/><stop stop-color="#51FFCF" offset="100%"/></linearGradient><linearGradient x1="93.778%" y1="13.937%" x2="0%" y2="86.063%" id="prefix__q"><stop stop-color="#57FDC7" offset="0%"/><stop stop-color="#FFF" offset="100%"/></linearGradient><linearGradient x1="51.191%" y1="-35.266%" x2="56.194%" y2="67.238%" id="prefix__r"><stop stop-color="#AEFFE4" offset="0%"/><stop stop-color="#51FFCC" offset="100%"/></linearGradient><path id="prefix__a" d="M0 0h750v350H0z"/><path d="M0 379.8c355.527-9.613 368.622-71.8 554.31-71.8 48.462 0 113.692 13.73 195.69 41.19v110.586H0V379.8z" id="prefix__l"/><path d="M498.925 110.696l-87.85 74.608" id="prefix__o"/><path d="M281.85-18L194 56.608" id="prefix__s"/></defs><g fill="none" fill-rule="evenodd"><mask id="prefix__c" fill="#fff"><use xlink:href="#prefix__a"/></mask><use fill="url(#prefix__b)" xlink:href="#prefix__a"/><g mask="url(#prefix__c)" fill="#FFF"><g transform="translate(-94 232)"><circle filter="url(#prefix__d)" cx="122" cy="58" r="2"/><circle filter="url(#prefix__e)" cx="122" cy="58" r="2"/><circle filter="url(#prefix__f)" cx="122" cy="58" r="2"/><circle filter="url(#prefix__g)" cx="162" cy="100" r="2"/><circle filter="url(#prefix__h)" cx="220" cy="106" r="2"/></g></g><rect fill="url(#prefix__i)" opacity=".15" mask="url(#prefix__c)" transform="rotate(-45 588 378)" x="512" y="302" width="152" height="152" rx="4"/><rect fill="url(#prefix__i)" opacity=".15" mask="url(#prefix__c)" transform="rotate(-45 375.48 377.48)" x="299.48" y="301.48" width="152" height="152" rx="4"/><rect fill="url(#prefix__i)" opacity=".2" mask="url(#prefix__c)" transform="rotate(-45 477 383)" x="382" y="288" width="190" height="190" rx="8"/><circle fill="url(#prefix__j)" opacity=".152" mask="url(#prefix__c)" cx="148" cy="214" r="56"/><g opacity=".2" mask="url(#prefix__c)" transform="matrix(-1 0 0 1 750 0)"><use fill="url(#prefix__k)" xlink:href="#prefix__l"/><use fill="#000" filter="url(#prefix__m)" xlink:href="#prefix__l"/></g><path stroke="#979797" stroke-width="2" stroke-linecap="square" mask="url(#prefix__c)" d="M69 275l3 3"/><g opacity=".16" mask="url(#prefix__c)"><use fill="url(#prefix__n)" xlink:href="#prefix__o"/><use fill="#000" filter="url(#prefix__p)" xlink:href="#prefix__o"/><use stroke="url(#prefix__q)" stroke-width="2" xlink:href="#prefix__o"/></g><g opacity=".16" mask="url(#prefix__c)"><use fill="url(#prefix__r)" xlink:href="#prefix__s"/><use fill="#000" filter="url(#prefix__t)" xlink:href="#prefix__s"/><use stroke="#FFF" stroke-width="2" xlink:href="#prefix__s"/></g><g mask="url(#prefix__c)" fill="#FFF"><g transform="translate(446 -32)"><circle filter="url(#prefix__u)" cx="122" cy="58" r="2"/><circle filter="url(#prefix__v)" cx="122" cy="58" r="2"/><circle filter="url(#prefix__w)" cx="122" cy="58" r="2"/><circle filter="url(#prefix__x)" cx="162" cy="100" r="2"/><circle filter="url(#prefix__y)" cx="220" cy="106" r="2"/><circle filter="url(#prefix__z)" cx="220" cy="164" r="2"/><circle filter="url(#prefix__A)" cx="262" cy="146" r="2"/></g></g><g mask="url(#prefix__c)" fill="#FFF"><g transform="translate(526 70)"><circle opacity=".056" filter="url(#prefix__B)" cx="31" cy="55" r="31"/><circle opacity=".076" filter="url(#prefix__C)" cx="57" cy="25" r="25"/><circle opacity=".076" filter="url(#prefix__D)" cx="57" cy="25" r="25"/></g></g></g></svg>
