<?xml version="1.0" encoding="UTF-8"?>
<svg width="130px" height="130px" viewBox="0 0 130 130" version="1.1" xmlns="http://www.w3.org/2000/svg" xmlns:xlink="http://www.w3.org/1999/xlink">
    <title>补助</title>
    <defs>
        <circle id="path-1" cx="57" cy="57" r="57"></circle>
        <filter x="-11.4%" y="-9.6%" width="122.8%" height="122.8%" filterUnits="objectBoundingBox" id="filter-2">
            <feOffset dx="0" dy="2" in="SourceAlpha" result="shadowOffsetOuter1"></feOffset>
            <feGaussianBlur stdDeviation="4" in="shadowOffsetOuter1" result="shadowBlurOuter1"></feGaussianBlur>
            <feColorMatrix values="0 0 0 0 0   0 0 0 0 0   0 0 0 0 0  0 0 0 0.102135291 0" type="matrix" in="shadowBlurOuter1"></feColorMatrix>
        </filter>
    </defs>
    <g id="页面-1" stroke="none" stroke-width="1" fill="none" fill-rule="evenodd">
        <g id="互动" transform="translate(-568.000000, -248.000000)">
            <g id="编组-18" transform="translate(30.000000, 194.000000)">
                <g id="补助" transform="translate(546.000000, 60.000000)">
                    <g id="椭圆形">
                        <use fill="black" fill-opacity="1" filter="url(#filter-2)" xlink:href="#path-1"></use>
                        <use fill="#FFFFFF" fill-rule="evenodd" xlink:href="#path-1"></use>
                    </g>
                    <g id="编组-3" transform="translate(33.000000, 25.000000)" fill-rule="nonzero">
                        <path d="M24.273853,2.38338103 C24.3667957,2.38338103 24.4829747,2.33654207 24.6223891,2.24286422 C24.901218,2.05550826 25.2729896,1.72763617 25.7377046,1.25924659 C26.2953624,0.744018534 26.8530201,0.369304538 27.4106779,0.13511215 C27.9683357,-0.0990822962 28.7118816,-0.0288238937 29.641309,0.345887357 C30.106024,0.486404162 30.4777956,0.685469407 30.7566245,0.943083779 C31.0354534,1.20069815 31.3026642,1.44660256 31.5582575,1.680797 C31.8138509,1.91499145 32.0926798,2.11405738 32.3947442,2.27799343 C32.6968086,2.44192947 33.0801962,2.52389783 33.5449133,2.52389783 C34.0096283,2.52389783 34.4046334,2.45363943 34.7299361,2.31312263 C35.0552367,2.17260582 35.3689192,2.04379898 35.6709835,1.92670141 C35.9730479,1.80960385 36.275113,1.72763617 36.5771774,1.680797 C36.8792418,1.63395805 37.239396,1.680797 37.6576393,1.82131381 C38.1223544,2.00866978 38.4360389,2.27799343 38.5986868,2.62928544 C38.7613368,2.98057745 38.8078085,3.34358148 38.7381012,3.71829068 C38.668394,4.09300193 38.5057441,4.46771592 38.2501507,4.84242512 C37.9945573,5.21713637 37.6808748,5.5215899 37.3091032,5.75578435 C36.4261428,6.31785157 35.7523109,6.89163081 35.2875938,7.47711521 C34.8228788,8.06260167 34.3581665,8.68322007 33.8934494,9.33896287 C33.6610922,9.66683565 33.4054989,10.0415469 33.12667,10.4630973 C32.8478411,10.8846477 32.5922477,11.3061981 32.3598906,11.7277486 C32.0810617,12.2429766 31.7789973,12.7347834 31.4536967,13.203175 L17.0243021,13.203175 C16.6990015,12.6411078 16.3737016,12.1024578 16.048401,11.5872318 C15.7695721,11.1188422 15.4675077,10.6504553 15.1422071,10.1820637 C14.8169065,9.71367413 14.5380776,9.29212165 14.3057205,8.91741246 C13.8410054,8.21482843 13.3181992,7.59421483 12.737308,7.05556479 C12.1564147,6.51691681 11.5871389,6.03681796 11.0294811,5.61526754 C10.4253516,5.19371713 10.0071063,4.61993789 9.77475112,3.89393668 C9.54239394,3.16793548 9.7515154,2.54731501 10.4021161,2.03208902 C10.7274167,1.79789457 11.0991883,1.70421624 11.5174316,1.75105541 C11.935675,1.79789436 12.3771517,1.89157221 12.8418688,2.03208902 C13.3065839,2.17260582 13.7596828,2.31312263 14.2011596,2.45363943 C14.6426385,2.59415624 15.0492664,2.61757548 15.421036,2.52389783 C16.0716365,2.38338103 16.559585,2.13747662 16.8848876,1.78618461 C17.2101882,1.4348926 17.767848,1.00163016 18.5578609,0.486404162 C19.1619904,0.111692911 19.8358243,-0.0171146173 20.5793703,0.0999829488 C21.3229163,0.217080515 21.880574,0.462984924 22.2523436,0.837696175 C22.4382297,1.07189062 22.6357333,1.27095655 22.844855,1.4348926 C23.0539766,1.59882864 23.2747164,1.75105541 23.5070736,1.89157221 C23.7394307,2.07892818 23.9950241,2.24286422 24.273853,2.38338103 Z M32.1507689,16.4350615 C32.7084267,17.1844868 33.4054989,18.0041636 34.2419855,18.8941056 C34.9390577,19.6903652 35.7987778,20.5920193 36.8211527,21.5990541 C37.8435275,22.6060889 39.0285503,23.671677 40.3762209,24.7958114 C41.4915365,25.7794291 42.6417056,26.9386927 43.8267283,28.2736023 C45.0117511,29.608512 46.0457393,31.1659089 46.9286997,32.9457861 C47.8116601,34.7256633 48.4274049,36.774869 48.775941,39.0933963 C49.1244771,41.4119236 49.066388,43.9997725 48.601673,46.8569498 C48.1834296,49.1988943 47.3585631,51.4120339 46.1270666,53.4963688 C44.8955701,55.5807037 43.2574504,57.3957102 41.2127076,58.941395 C39.1679647,60.4870799 36.7398253,61.7166019 33.928303,62.6299612 C31.1167807,63.5433204 27.9218619,64 24.3435602,64 C20.672311,64 17.4193323,63.473062 14.5845493,62.4191859 C11.7497868,61.3653099 9.34488766,59.9952711 7.36985201,58.3090694 C5.39481636,56.6228677 3.8264039,54.7376029 2.66461462,52.653268 C1.50282535,50.5689331 0.73604592,48.4963102 0.364276347,46.4353994 C-0.0539669767,44.1402893 -0.1120561,41.9388616 0.190008295,39.8311095 C0.492072691,37.7233575 1.03811508,35.7444102 1.82812798,33.8942745 C2.61814087,32.0441389 3.6056621,30.3462252 4.79068485,28.8005404 C5.9757076,27.2548555 7.26529118,25.8731046 8.65943559,24.6552946 C9.86769181,23.5780014 10.9597739,22.5592546 11.935675,21.5990541 C12.911576,20.6388537 13.7248292,19.7606236 14.3754277,18.964364 C15.1654406,18.074422 15.8625128,17.2313211 16.4666443,16.4350615 L32.1507689,16.4350615 L32.1507689,16.4350615 Z M24.7618035,38.0043911 L22.8797086,36.1074142 L21.4158569,34.6319878 C20.9511419,34.1635982 20.6258441,33.8123041 20.4399559,33.5781117 C20.0681842,33.250239 19.5802357,32.9809153 18.9761042,32.7701401 C18.3719748,32.5593649 17.8607887,32.6881717 17.4425454,33.1565613 C17.0707738,33.6717894 16.9778303,34.1753081 17.1637165,34.667117 C17.3496026,35.1589258 17.5587243,35.545347 17.7910815,35.8263806 L18.8366898,36.8099982 C19.3478758,37.3720655 19.9055316,37.9809739 20.5096631,38.6367167 C21.2067353,39.386142 21.9735147,40.1824016 22.8100014,41.0255024 L22.7402941,42.5009288 L18.0002031,42.5009288 C17.5819598,42.5009288 17.2218036,42.6648649 16.9197412,42.9927377 C16.6176768,43.3206104 16.4666443,43.6719024 16.4666443,44.0466137 C16.4666443,44.4213249 16.6060587,44.7491977 16.8848876,45.0302313 C17.1637165,45.3112649 17.5354881,45.4517817 18.0002031,45.4517817 L22.7402941,45.4517817 L22.7402941,47.9108258 L18.0002031,47.9108258 C17.5819598,47.9108258 17.2218036,48.0396327 16.9197412,48.297247 C16.6176768,48.5548614 16.4666443,48.8944435 16.4666443,49.3159939 C16.4201728,49.6907051 16.5479696,50.0068659 16.850034,50.2644823 C17.1520984,50.5220967 17.5354861,50.6509035 18.0002031,50.6509035 L22.7402941,50.6509035 L22.7402941,52.0560716 C22.7867656,52.7118164 22.9958875,53.168494 23.3676591,53.4261104 C23.7394307,53.6837248 24.2041458,53.8125316 24.7618035,53.8125316 C25.3194613,53.8593706 25.7725582,53.6837248 26.1210943,53.2855936 C26.4696304,52.8874624 26.6438985,52.477622 26.6438985,52.0560716 L26.6438985,50.6509035 L31.5234039,50.6509035 C31.988119,50.6509035 32.3715107,50.5455159 32.6735731,50.3347407 C32.9756375,50.1239655 33.1034345,49.7843835 33.0569628,49.3159939 C33.0569628,48.3323762 32.4063623,47.8405674 31.1051606,47.8405674 L26.6438985,47.8405674 L26.7136057,45.4517817 L31.244575,45.3815233 C31.8951755,45.4283623 32.3598906,45.299555 32.6387195,44.9951021 C32.9175483,44.6906493 33.0569628,44.3276473 33.0569628,43.9060969 C33.0569628,43.5313856 32.9059302,43.1918008 32.6038658,42.8873501 C32.3018014,42.5828972 31.8254663,42.4306704 31.1748678,42.4306704 L26.6438985,42.4306704 L26.6438985,41.0957608 C27.4339114,40.3463355 28.1542239,39.6203343 28.8048223,38.9177503 C29.3624801,38.3556831 29.9201379,37.7819039 30.4777956,37.1964195 C31.0354534,36.610933 31.4536967,36.2010898 31.7325256,35.9668974 C32.8013674,35.030121 33.0337293,34.2104374 32.4295978,33.5078533 C32.1042972,33.0863029 31.6860518,32.8755277 31.1748678,32.8755277 C30.6636818,32.8755277 30.1989667,33.0628837 29.7807234,33.4375949 C29.5483662,33.6249509 29.1533584,33.9645329 28.5957007,34.4563418 C28.0380429,34.9481506 27.4803851,35.4516714 26.9227274,35.9668974 C26.2721269,36.5758038 25.5518164,37.2549658 24.7618035,38.0043911 Z" id="形状" fill="#FFAC3E"></path>
                        <path d="M47,36 C47.3733269,36 47.7445764,36.0088946 48.113548,36.0264835 C48.392829,36.9898529 48.6134309,38.012349 48.775941,39.0933963 C49.1244771,41.4119236 49.066388,43.9997725 48.601673,46.8569498 C48.1834296,49.1988943 47.3585631,51.4120339 46.1270666,53.4963688 C44.8955701,55.5807037 43.2574504,57.3957102 41.2127076,58.941395 C39.1679647,60.4870799 36.7398253,61.7166019 33.928303,62.6299612 C31.1700772,63.5260063 28.0428528,63.9825218 24.5466427,63.9995077 C24.1880996,62.3896692 24,60.7168011 24,59 C24,57.21415 24.2035344,55.4758381 24.5886718,53.8069956 C24.644619,53.8110842 24.7026891,53.8125316 24.7618035,53.8125316 C25.3194613,53.8593706 25.7725582,53.6837248 26.1210943,53.2855936 C26.4696304,52.8874624 26.6438985,52.477622 26.6438985,52.0560716 L26.6438985,50.6509035 L31.5234039,50.6509035 C31.988119,50.6509035 32.3715107,50.5455159 32.6735731,50.3347407 C32.9756375,50.1239655 33.1034345,49.7843835 33.0569628,49.3159939 C33.0569628,48.3323762 32.4063623,47.8405674 31.1051606,47.8405674 L26.8842218,47.8398767 C27.3505502,47.001129 27.8678144,46.1945959 28.4318346,45.4244574 L31.244575,45.3815233 C31.8951755,45.4283623 32.3598906,45.299555 32.6387195,44.9951021 C32.9175483,44.6906493 33.0569628,44.3276473 33.0569628,43.9060969 C33.0569628,43.5313856 32.9059302,43.1918008 32.6038658,42.8873501 C32.3018014,42.5828972 31.8254663,42.4306704 31.1748678,42.4306704 L31.0489254,42.4300146 C35.1841143,38.4483364 40.8061374,36 47,36 Z" id="形状结合" fill="#FF7C0E"></path>
                    </g>
                </g>
            </g>
        </g>
    </g>
</svg>