<?xml version="1.0" encoding="UTF-8"?>
<svg width="130px" height="130px" viewBox="0 0 130 130" version="1.1" xmlns="http://www.w3.org/2000/svg" xmlns:xlink="http://www.w3.org/1999/xlink">
    <title>全部</title>
    <defs>
        <circle id="path-1" cx="57" cy="57" r="57"></circle>
        <filter x="-11.4%" y="-9.6%" width="122.8%" height="122.8%" filterUnits="objectBoundingBox" id="filter-2">
            <feOffset dx="0" dy="2" in="SourceAlpha" result="shadowOffsetOuter1"></feOffset>
            <feGaussianBlur stdDeviation="4" in="shadowOffsetOuter1" result="shadowBlurOuter1"></feGaussianBlur>
            <feColorMatrix values="0 0 0 0 0   0 0 0 0 0   0 0 0 0 0  0 0 0 0.102135291 0" type="matrix" in="shadowBlurOuter1"></feColorMatrix>
        </filter>
    </defs>
    <g id="页面-1" stroke="none" stroke-width="1" fill="none" fill-rule="evenodd">
        <g id="互动" transform="translate(-52.000000, -248.000000)">
            <g id="编组-18" transform="translate(30.000000, 194.000000)">
                <g id="全部" transform="translate(30.000000, 60.000000)">
                    <g id="椭圆形">
                        <use fill="black" fill-opacity="1" filter="url(#filter-2)" xlink:href="#path-1"></use>
                        <use fill="#FFFFFF" fill-rule="evenodd" xlink:href="#path-1"></use>
                    </g>
                    <g id="编组-19" transform="translate(27.000000, 27.000000)" fill-rule="nonzero">
                        <path d="M50.1369869,3.28767139 L50.1369872,3.28767139 C53.766757,3.29174842 56.7082529,6.23324418 56.7123299,9.86301395 L56.7123299,18.4931507 L56.7123299,18.4929448 C56.7083668,22.1227146 53.7669627,25.0643008 50.1371929,25.0684926 L34.9314666,25.0684926 L34.9314666,9.86301355 L34.9314666,9.86321917 C34.9354299,6.23344939 37.8768337,3.29186317 41.5066036,3.28767139 L50.1367406,3.28767139 M50.1367406,2.34142185e-07 L41.5068502,2.34142185e-07 L41.5068497,2.34142185e-07 C36.0596552,2.34142185e-07 31.643836,4.4158193 31.643836,9.86301369 C31.643836,9.86301369 31.643836,9.86301369 31.643836,9.86301369 L31.643836,28.3561639 L50.1369867,28.3561639 L50.1369863,28.3561639 C55.5841808,28.3561639 60,23.9403448 60,18.4931505 L60,9.86301369 L60,9.86301369 C60,4.4158193 55.5841808,2.34142185e-07 50.1369863,2.34142185e-07 L50.1367406,2.34142185e-07 Z M9.86301456,0 L18.4931515,0 L18.4931511,0 C23.9403456,0 28.3561648,4.41581907 28.3561648,9.86301345 L28.3561648,28.3561637 L9.86301413,28.3561637 L9.8630137,28.3561637 C4.41581918,28.3561637 5.32907052e-15,23.9403446 5.32907052e-15,18.4931502 C5.32907052e-15,18.4931502 5.32907052e-15,18.4931502 5.32907052e-15,18.4931502 L5.32907052e-15,9.86301345 L5.32907052e-15,9.86301494 C5.32907052e-15,4.41582056 4.41581918,0 9.8630137,0 L9.86301456,0 Z M50.1369872,59.9999985 L41.5068502,59.9999985 L41.5068497,59.9999985 C36.0596552,59.9999985 31.643836,55.5841794 31.643836,50.1369851 C31.643836,50.1369851 31.643836,50.1369851 31.643836,50.1369851 L31.643836,31.6438348 L50.1369867,31.6438348 L50.1369863,31.6438348 C55.5841808,31.6438348 60,36.0596539 60,41.5068483 L60,50.1369851 L60,50.1369851 C60,55.5841794 55.5841808,59.9999985 50.1369863,59.9999985 L50.1369872,59.9999985 Z M9.86301456,60 L18.4931515,60 L18.4931511,60 C23.9403456,60 28.3561648,55.5841794 28.3561648,50.1369851 L28.3561648,31.6438348 L9.86301413,31.6438348 L9.8630137,31.6438348 C4.41581918,31.6438348 0,36.0596539 0,41.5068483 C0,41.5068483 0,41.5068483 0,41.5068483 L0,50.1369851 L0,50.1369865 C0,55.5841809 4.41581918,60 9.8630137,60 L9.86301456,60 Z" id="形状" fill="#80B7F9"></path>
                        <path d="M60,41.5068483 L60,50.1369851 C60,55.5841794 55.5841808,59.9999985 50.1369863,59.9999985 L41.5068497,59.9999985 C39.7493563,59.9999985 38.0992269,59.5403214 36.6701323,58.7346381 C37.2292013,46.8022917 46.7920743,37.2238905 58.7182843,36.6410081 C59.5340208,38.0766846 60,39.7373485 60,41.5068483 Z" id="形状结合" fill="#3E8BF8"></path>
                    </g>
                </g>
            </g>
        </g>
    </g>
</svg>