<?xml version="1.0" encoding="UTF-8"?>
<svg width="32px" height="32px" viewBox="0 0 32 32" version="1.1" xmlns="http://www.w3.org/2000/svg" xmlns:xlink="http://www.w3.org/1999/xlink">
    <title>评论</title>
    <g id="页面-1" stroke="none" stroke-width="1" fill="none" fill-rule="evenodd">
        <g id="首页" transform="translate(-584.000000, -1788.000000)">
            <g id="最新动态" transform="translate(30.000000, 1322.000000)">
                <g id="编组-13" transform="translate(388.000000, 466.000000)">
                    <g id="评论" transform="translate(166.000000, 0.000000)">
                        <rect id="矩形" x="0" y="0" width="32" height="32"></rect>
                        <g id="编组-10" transform="translate(0.000000, 2.000000)">
                            <path d="M27,0 C29.209139,0 31,1.790861 31,4 L31,19 C31,21.209139 29.209139,23 27,23 L17.5,23 L10.1094004,27.9270664 C9.82779893,28.1148007 9.50396701,28.227488 9.1685387,28.2558531 L9,28.2629658 C7.9456382,28.2629658 7.08183488,27.447088 7.00548574,26.4122282 L7,26.2629658 L7,23 L4,23 C1.790861,23 0,21.209139 0,19 L0,4 C0,1.790861 1.790861,0 4,0 L27,0 Z M27,2 L4,2 C2.9456382,2 2.08183488,2.81587779 2.00548574,3.85073766 L2,4 L2,19 C2,20.0543618 2.81587779,20.9181651 3.85073766,20.9945143 L4,21 L8,21 C8.55228475,20.99974 9,21.4474553 9,21.99974 C9,21.9998267 8.99999999,21.9999134 8.99973998,22 L8.99865063,26.1895108 L8.99865063,26.1895108 L9,26.262 L16.1387478,21.5037082 C16.6315061,21.1752629 17.2104485,21 17.8026369,21 L27,21 L27,21 C28.0543618,21 28.9181651,20.1841222 28.9945143,19.1492623 L29,19 L29,4 C29,2.9456382 28.1841222,2.08183488 27.1492623,2.00548574 L27,2 Z" id="形状结合" fill="#4D4D4D" fill-rule="nonzero"></path>
                            <circle id="椭圆形" fill="#20CE40" cx="8.5" cy="11.5" r="2.5"></circle>
                            <circle id="椭圆形备份" fill="#20CE40" cx="15.5" cy="11.5" r="2.5"></circle>
                            <circle id="椭圆形备份-2" fill="#20CE40" cx="22.5" cy="11.5" r="2.5"></circle>
                        </g>
                    </g>
                </g>
            </g>
        </g>
    </g>
</svg>