<?xml version="1.0" encoding="UTF-8"?>
<svg width="130px" height="130px" viewBox="0 0 130 130" version="1.1" xmlns="http://www.w3.org/2000/svg" xmlns:xlink="http://www.w3.org/1999/xlink">
    <title>情感</title>
    <defs>
        <circle id="path-1" cx="57" cy="57" r="57"></circle>
        <filter x="-11.4%" y="-9.6%" width="122.8%" height="122.8%" filterUnits="objectBoundingBox" id="filter-2">
            <feOffset dx="0" dy="2" in="SourceAlpha" result="shadowOffsetOuter1"></feOffset>
            <feGaussianBlur stdDeviation="4" in="shadowOffsetOuter1" result="shadowBlurOuter1"></feGaussianBlur>
            <feColorMatrix values="0 0 0 0 0   0 0 0 0 0   0 0 0 0 0  0 0 0 0.102135291 0" type="matrix" in="shadowBlurOuter1"></feColorMatrix>
        </filter>
    </defs>
    <g id="页面-1" stroke="none" stroke-width="1" fill="none" fill-rule="evenodd">
        <g id="互动" transform="translate(-224.000000, -248.000000)">
            <g id="编组-18" transform="translate(30.000000, 194.000000)">
                <g id="情感" transform="translate(202.000000, 60.000000)">
                    <g id="椭圆形">
                        <use fill="black" fill-opacity="1" filter="url(#filter-2)" xlink:href="#path-1"></use>
                        <use fill="#FFFFFF" fill-rule="evenodd" xlink:href="#path-1"></use>
                    </g>
                    <g transform="translate(19.000000, 26.000000)" fill-rule="nonzero">
                        <path d="M34.8112522,31.4057119 C37.075708,24.9203772 43.1864085,20.5746202 50.071353,20.5746202 C51.8362965,20.5746202 53.5762643,20.8660023 55.2579557,21.4321163 C58.1551271,22.4144905 60.6360381,24.1461331 62.5008841,26.3939385 C63.6664128,26.1275319 64.8652423,25.9943286 66.0890474,25.9943286 C66.2722019,25.9943286 66.4470312,25.9943286 66.6301857,26.0026538 C67.5709339,16.9365056 64.8069658,11.1088621 64.8069658,11.1088621 C60.9190951,1.94281138 50.3294344,-2.33634399 41.1550584,1.54320154 C34.7113498,4.26554358 30.6819506,10.292992 30.1907635,16.8116275 C25.1623396,12.6240494 18.0193137,11.3253174 11.5839303,14.0476595 C2.40955437,17.9355302 -1.8779262,28.5085405 2.00994453,37.6745912 C2.00994453,37.6745912 6.13092101,49.3548539 21.2744689,55.2657494 C30.5487473,58.8872136 38.6075457,60.6937831 43.7192216,61.5762548 C41.787774,59.1286445 39.0737572,55.2990502 36.5428949,50.337228 C31.755902,40.9297464 34.1785367,33.1040537 34.8112522,31.4057119 Z M69.1277472,33.1456797 C65.6394863,31.9635006 61.9430953,32.9208992 59.4705094,35.3185582 C58.9626719,31.9135494 56.6066389,28.9081504 53.118378,27.7259713 C48.1565558,26.0526051 42.761823,28.7083455 41.0801316,33.6701676 C41.0801316,33.6701676 38.6075457,39.7059413 42.4870912,47.3235038 C45.2677097,52.7765131 48.2564583,56.6727091 49.8881985,58.6041566 C50.6374669,59.4866283 51.8113208,59.8612626 52.9352235,59.5865308 C55.5493379,58.94549 60.6277129,57.4969043 65.6811124,54.9910176 C73.3070002,51.1947242 75.0802688,45.1756009 75.0802688,45.1756009 C76.7619602,40.2137788 74.0978946,34.8273711 69.1277472,33.1456797 Z" id="形状" fill="#F85F69"></path>
                        <path d="M70.0657099,33.5187764 C74.4253765,35.5247172 76.6528218,40.5357912 75.0802688,45.1756009 C75.0802688,45.1756009 75.0798491,45.1770256 75.0789948,45.1798449 L75.0685356,45.213256 C75.0658837,45.2215338 75.0627675,45.2311462 75.0591721,45.2420631 L75.0317318,45.32298 C74.7030277,46.2678836 72.6030721,51.5451513 65.6811124,54.9910176 C60.6277129,57.4969043 55.5493379,58.94549 52.9352235,59.5865308 C51.8113208,59.8612626 50.6374669,59.4866283 49.8881985,58.6041566 C49.3770974,57.9991798 48.7328607,57.2014423 48.0035857,56.22348 C48.145905,44.0277374 57.7804519,34.1155553 69.8634774,33.52759 Z" id="形状结合" fill="#F33B3D"></path>
                    </g>
                </g>
            </g>
        </g>
    </g>
</svg>