<?xml version="1.0" encoding="UTF-8"?>
<svg width="36px" height="36px" viewBox="0 0 36 36" version="1.1" xmlns="http://www.w3.org/2000/svg" xmlns:xlink="http://www.w3.org/1999/xlink">
    <title>enter</title>
    <g id="页面-1" stroke="none" stroke-width="1" fill="none" fill-rule="evenodd">
        <g id="个人中心" transform="translate(-664.000000, -430.000000)">
            <g id="信息展示:40/卡片列表(圆角)CardList:3/基础:1/样式:单行不带图" transform="translate(30.000000, 400.000000)">
                <g id="Group-6" transform="translate(103.464000, 24.000000)">
                    <g id="enter" transform="translate(530.536000, 6.000000)">
                        <rect id="Rectangle" x="0" y="0" width="36" height="36"></rect>
                        <g id="right" transform="translate(9.000000, 3.272727)" fill="#CCCCCC" fill-rule="nonzero">
                            <path d="M1.09934769,2.83721461 L14.4173593,14.8050137 C14.8457035,15.1899751 14.8809301,15.849261 14.4960039,16.2776404 L14.4960039,16.2776404 C14.4712051,16.305223 14.4449531,16.3314633 14.4173593,16.3562499 L1.09934768,28.3240841 C0.564972062,28.8042487 0.521061854,29.626695 1.00126163,30.1610355 C1.48142625,30.6954111 2.30387252,30.7392861 2.83821299,30.2591215 L16.1562246,18.2913224 L16.1562247,18.2913224 C16.2526534,18.2046706 16.3443896,18.1129344 16.4310414,18.0165057 C17.776332,16.5194453 17.653285,14.2152669 16.1562247,12.8699762 L2.83821306,0.902177142 C2.30383744,0.421977365 1.48142633,0.465887572 1.00126171,1.00026319 C0.521061928,1.53460366 0.564972135,2.35704993 1.09934776,2.83721455 L1.09934769,2.83721461 Z" id="路径"></path>
                        </g>
                    </g>
                </g>
            </g>
        </g>
    </g>
</svg>