<?xml version="1.0" encoding="UTF-8"?>
<svg width="130px" height="130px" viewBox="0 0 130 130" version="1.1" xmlns="http://www.w3.org/2000/svg" xmlns:xlink="http://www.w3.org/1999/xlink">
    <title>交友</title>
    <defs>
        <circle id="path-1" cx="57" cy="57" r="57"></circle>
        <filter x="-11.4%" y="-9.6%" width="122.8%" height="122.8%" filterUnits="objectBoundingBox" id="filter-2">
            <feOffset dx="0" dy="2" in="SourceAlpha" result="shadowOffsetOuter1"></feOffset>
            <feGaussianBlur stdDeviation="4" in="shadowOffsetOuter1" result="shadowBlurOuter1"></feGaussianBlur>
            <feColorMatrix values="0 0 0 0 0   0 0 0 0 0   0 0 0 0 0  0 0 0 0.102135291 0" type="matrix" in="shadowBlurOuter1"></feColorMatrix>
        </filter>
    </defs>
    <g id="页面-1" stroke="none" stroke-width="1" fill="none" fill-rule="evenodd">
        <g id="互动" transform="translate(-396.000000, -248.000000)">
            <g id="编组-18" transform="translate(30.000000, 194.000000)">
                <g id="交友" transform="translate(374.000000, 60.000000)">
                    <g id="椭圆形">
                        <use fill="black" fill-opacity="1" filter="url(#filter-2)" xlink:href="#path-1"></use>
                        <use fill="#FFFFFF" fill-rule="evenodd" xlink:href="#path-1"></use>
                    </g>
                    <g transform="translate(23.000000, 27.000000)" fill-rule="nonzero">
                        <path d="M62.4846451,4.66868104 C56.2647316,-1.55123248 46.0445802,-1.55123248 39.3795211,4.66868104 L37.6019783,6.89061457 C37.6019783,6.89061457 37.4850735,6.90710106 37.1575916,7.33425177 L24.272639,20.6613639 C22.9394802,21.9945227 21.6063214,24.6600921 24.272639,27.3264096 C26.0494336,29.1032043 29.1601419,29.547595 30.4925525,27.7700468 L42.0443463,15.773889 L58.0407821,32.213954 L62.4846491,27.7708351 C68.7045627,21.5509216 68.7045627,11.3307701 62.4846491,4.66571104 L62.4846451,4.66868104 Z M10.0537686,37.9901688 L10.0537686,37.9901694 C10.0537686,39.9535942 11.6454362,41.5452617 13.6088611,41.5452617 C15.5722859,41.5452617 17.1639534,39.9535942 17.1639534,37.9901694 C17.1639534,36.0267445 15.5722859,34.4350771 13.6088611,34.4350771 L13.6088609,34.4350771 C11.6454361,34.4350771 10.0537686,36.0267445 10.0537686,37.9901694 C10.0537686,37.9901694 10.0537686,37.9901694 10.0537686,37.9901694 M28.272138,49.5419951 C30.2348547,49.5424095 31.8257339,51.1336228 31.8257339,53.0963395 C31.8257339,55.0593502 30.2344005,56.6506836 28.2713898,56.6506836 C26.3083791,56.6506836 24.7170457,55.0593502 24.7170457,53.0963395 L24.7170457,53.0963395 L24.717794,53.097085 C24.718208,51.1322466 26.3095414,49.5415813 28.272138,49.5419951 Z M20.7198204,41.9881292 C22.6832453,41.9881292 24.2749128,43.5797966 24.2749128,45.5432215 C24.2749128,47.5066463 22.6832453,49.0983138 20.7198204,49.0983138 C18.7563956,49.0983138 17.1647281,47.5066463 17.1647281,45.5432215 L17.1647281,45.5432215 L17.169614,45.3544815 C17.2673203,43.4794802 18.8181696,41.9889308 20.7175729,41.9881292 L20.7175729,41.9881292 Z" id="形状" fill="#80B7F9"></path>
                        <path d="M42.0443022,19.7725945 L32.714462,29.5483351 C31.3820514,30.8814939 29.6045086,31.7702687 27.382575,31.7702687 C25.6050322,31.7702687 23.3838469,30.8814939 22.0506881,29.5483351 C18.9407347,26.4383817 18.9407347,21.9952829 22.0506881,18.8845345 L31.3820648,9.10879386 L27.3825884,4.66867436 C21.1626749,-1.55123916 10.9447947,-1.55123916 4.27525992,4.66867436 C-1.49501897,11.3307274 -1.49501897,21.5500972 4.72489188,28.2144215 L10.057527,33.5470566 C10.9455536,32.6582819 12.2787124,32.2138978 13.6118712,32.2138978 C16.7218246,32.2138978 19.3881488,34.8794672 19.3881488,37.9901755 C19.3881488,38.4345622 19.3881488,39.3225861 18.9437621,39.7677183 C19.3881488,39.7677183 20.2769209,39.3225828 20.7213049,39.3225821 C23.8312584,39.3225821 26.4968277,41.9888997 26.4968277,45.0988598 C26.4968277,45.9876345 26.4968277,46.4320186 26.052441,46.8764026 C26.9412158,47.3207893 27.8299839,46.8764026 28.2743746,46.8764026 C31.3850828,46.8764026 34.0506522,49.541972 34.0506522,52.6526803 C34.0506522,53.9858391 33.6062655,55.3189978 32.7174935,56.2070244 L35.383811,58.873342 C35.383811,58.873342 39.3795398,61.09752 42.044361,57.9845672 C43.3775198,56.6514084 42.9338839,53.9858391 42.044361,52.6526803 C38.9344076,49.541972 29.6045072,39.7677277 29.6045072,39.7677277 L31.3820501,37.9901849 C31.3820501,37.9901849 40.7126919,47.7651907 43.8219038,50.8796132 C44.7106786,51.7676397 47.8213802,52.2120238 49.5981815,49.9900902 C51.3749761,47.7681567 50.4869562,45.5469713 49.5981815,44.6589515 C46.9333603,41.9881381 37.6020237,32.6582512 37.6020237,32.6582512 L39.3795665,30.8807083 L51.8194203,43.3205621 C52.7074469,44.2093369 56.2625392,43.7649488 57.595698,42.4317874 C61.5944261,37.5442844 56.7069232,34.4335695 52.2630628,29.9919336 L42.0443022,19.7725945 Z" id="路径" fill="#80B7F9"></path>
                        <path d="M32.4226004,42.7134962 C33.4448565,43.7803841 34.6514018,45.0378244 35.8777791,46.3119691 L36.3714258,46.8246261 C38.594082,49.1318674 40.8095266,51.4175461 42.044361,52.6526803 C42.9338839,53.9858391 43.3775198,56.6514084 42.044361,57.9845672 C39.3795398,61.09752 35.383811,58.873342 35.383811,58.873342 L35.383811,58.873342 L32.7174935,56.2070244 C33.6062655,55.3189978 34.0506522,53.9858391 34.0506522,52.6526803 C34.0506522,50.3924696 32.6434087,48.3672626 30.6806597,47.4287976 C31.0862871,45.7928266 31.6687986,44.2252478 32.4055602,42.7480751 Z M39.7863166,34.8423913 C39.9814445,35.0375169 40.1859642,35.2420371 40.3983028,35.4543797 L41.0572027,36.1133034 C41.3590743,36.4151912 41.67205,36.7281911 41.9924017,37.048577 L45.2215734,40.2784718 C45.3038025,40.3607312 45.3857352,40.4426953 45.4673133,40.524306 L46.8848461,41.9425473 C46.9600725,42.0178203 47.0345948,42.0923906 47.1083549,42.1661998 L47.9531554,43.0116558 C48.0198848,43.0784454 48.0856188,43.1442411 48.1502993,43.2089846 L48.8721639,43.9316791 C48.9274836,43.9870742 48.9815166,44.0411842 49.0342048,44.093951 L49.4705144,44.531013 L49.4705144,44.531013 L49.5981815,44.6589515 C50.4869562,45.5469713 51.3749761,47.7681567 49.5981815,49.9900902 C47.8213802,52.2120238 44.7106786,51.7676397 43.8219038,50.8796132 C42.6788112,49.7346049 40.694803,47.6893232 38.6427049,45.560498 L37.9023435,44.7919232 C36.3965146,43.2276829 34.9038913,41.6711916 33.7275193,40.4427114 C35.2423625,38.1220268 37.1657743,36.0913981 39.3953991,34.4531506 L39.3958565,34.4519397 Z M52.2810633,30.0099154 C56.7201036,34.4419719 61.5890277,37.5508827 57.595698,42.4317874 C56.2625392,43.7649488 52.7074469,44.2093369 51.8194203,43.3205621 L51.8194203,43.3205621 L41.5486604,33.0489213 C44.7151641,31.2275166 48.3562408,30.138276 52.2407963,30.0122938 Z" id="形状结合" fill="#3E8BF8"></path>
                    </g>
                </g>
            </g>
        </g>
    </g>
</svg>