<?xml version="1.0" encoding="UTF-8"?>
<svg width="50px" height="51px" viewBox="0 0 50 51" version="1.1" xmlns="http://www.w3.org/2000/svg" xmlns:xlink="http://www.w3.org/1999/xlink">
    <title>服务</title>
    <g id="页面-1" stroke="none" stroke-width="1" fill="none" fill-rule="evenodd">
        <g id="首页" transform="translate(-197.000000, -2150.000000)">
            <g id="服务" transform="translate(197.750000, 2150.000000)">
                <rect id="矩形" x="0" y="2.32774427" width="48" height="48"></rect>
                <g id="编组-15" transform="translate(0.163290, 0.000000)" fill-rule="nonzero">
                    <path d="M31.5359009,7.1627893 L32.5906247,7.3565193 C38.1244493,8.37296352 41.8194887,13.8700386 40.8437261,19.6345802 L38.7979872,31.7202523 L38.4950164,33.9950999 L38.3514679,34.9899808 L38.2433938,35.6766667 L38.1700379,36.106961 L38.0565641,36.7122583 L37.9371866,37.2707025 L37.853335,37.6177025 L37.7653794,37.9449791 L37.6727278,38.2529722 C37.6251294,38.4022213 37.575548,38.544404 37.5236506,38.679768 L37.4166691,38.9414777 C37.3247801,39.1521149 37.2258411,39.3442695 37.1183104,39.5190874 L36.9850509,39.7206206 C36.9621208,39.7528469 36.9388223,39.7843982 36.9151432,39.8152834 L36.7684016,39.9926769 C36.4401367,40.3600319 36.04337,40.6179373 35.551005,40.7865339 L35.3168728,40.8580796 C35.1963141,40.8907551 35.0704423,40.9188395 34.9389244,40.9425803 L34.6682619,40.9843439 C34.621864,40.9903637 34.574814,40.9959192 34.5270996,41.0010196 L34.232743,41.026234 L33.9218501,41.0409657 C33.8686237,41.0425719 33.8146837,41.0437596 33.7600176,41.044538 L33.4232105,41.044538 L33.0683872,41.0348207 L32.6949557,41.0163281 L32.302324,40.9893329 L31.8899001,40.9542752 L31.2328588,40.887534 L30.5279549,40.8051272 L29.2413271,40.6370041 L27.1897533,40.3485477 L27.0113369,40.3174432 L15.4093753,38.1864131 C9.87555068,37.1699689 6.18051131,31.6728937 7.1562739,25.9083521 L7.34225016,24.8096547 C8.31801276,19.0451131 13.5950759,15.1960196 19.1289005,16.2124639 L19.6563554,16.3087795 L19.7492505,15.7599801 C20.7250131,9.99543852 26.0020762,6.14634508 31.5359009,7.1627893 Z M30.9939322,10.1134282 C27.209435,9.41829771 23.5569919,12.0132813 22.7528269,16.0139857 L22.7071742,16.2606672 L22.1070738,19.8058983 L18.5869318,19.1631028 C14.8024347,18.4679723 11.1499915,21.0629559 10.3458265,25.0636602 L10.3001738,25.3103417 L10.1141976,26.4090392 C9.42222116,30.4970488 11.9518298,34.3626729 15.7191614,35.189004 L15.951344,35.2357742 L27.6127708,37.3785214 L29.7794599,37.6774616 L31.0210279,37.8348131 L31.849563,37.9290772 L32.383156,37.982246 L32.8473973,38.0210426 L33.2476086,38.0460546 L33.4814718,38.0553613 L33.7867918,38.0587047 L33.9623214,38.0541097 L34.1172769,38.0442587 L34.253235,38.0293258 L34.3717725,38.0094851 L34.4744661,37.9849107 L34.5628925,37.9557768 L34.597,37.941 L34.596405,37.9353698 L34.6065158,37.9005125 L34.6981023,37.6676859 C34.7890512,37.4430224 34.8768593,37.1610131 34.9644776,36.8056882 L35.0521418,36.4253332 L35.1403351,35.9925523 L35.2297132,35.5037966 C35.2447447,35.4174756 35.2598529,35.3286745 35.2750514,35.2373193 L35.3674362,34.6579474 L35.6134105,32.9240004 L35.8232784,31.3315274 L35.8400636,31.2195653 L37.8858024,19.1338932 C38.5777788,15.0458836 36.0481702,11.1802595 32.2808386,10.3539284 L32.048656,10.3071582 L30.9939322,10.1134282 Z" id="路径" fill="#021408" transform="translate(24.000000, 24.022269) rotate(35.000000) translate(-24.000000, -24.022269) "></path>
                    <path d="M28.6843777,25.3674677 C29.2147238,24.7310523 30.1605708,24.6450662 30.7969862,25.1754124 C31.4334015,25.7057585 31.5193876,26.6516055 30.9890415,27.2880209 C29.063332,29.5988723 27.015212,30.8277443 24.8367096,30.8277443 C22.6582071,30.8277443 20.6100872,29.5988723 18.6843777,27.2880209 C18.1540315,26.6516055 18.2400176,25.7057585 18.876433,25.1754124 C19.5128483,24.6450662 20.4586954,24.7310523 20.9890415,25.3674677 C22.3966653,27.0566162 23.6818787,27.8277443 24.8367096,27.8277443 C25.9915405,27.8277443 27.2767538,27.0566162 28.6843777,25.3674677 Z" id="路径-2" fill="#00CE3F"></path>
                </g>
            </g>
        </g>
    </g>
</svg>