<?xml version="1.0" encoding="UTF-8"?>
<svg width="130px" height="130px" viewBox="0 0 130 130" version="1.1" xmlns="http://www.w3.org/2000/svg" xmlns:xlink="http://www.w3.org/1999/xlink">
    <title>康复中心</title>
    <defs>
        <circle id="path-1" cx="57" cy="57" r="57"></circle>
        <filter x="-11.4%" y="-9.6%" width="122.8%" height="122.8%" filterUnits="objectBoundingBox" id="filter-2">
            <feOffset dx="0" dy="2" in="SourceAlpha" result="shadowOffsetOuter1"></feOffset>
            <feGaussianBlur stdDeviation="4" in="shadowOffsetOuter1" result="shadowBlurOuter1"></feGaussianBlur>
            <feColorMatrix values="0 0 0 0 0   0 0 0 0 0   0 0 0 0 0  0 0 0 0.102135291 0" type="matrix" in="shadowBlurOuter1"></feColorMatrix>
        </filter>
    </defs>
    <g id="页面-1" stroke="none" stroke-width="1" fill="none" fill-rule="evenodd">
        <g id="首页" transform="translate(-224.000000, -702.000000)">
            <g id="编组-18" transform="translate(30.000000, 562.000000)">
                <g id="康复中心" transform="translate(202.000000, 146.000000)">
                    <g id="椭圆形">
                        <use fill="black" fill-opacity="1" filter="url(#filter-2)" xlink:href="#path-1"></use>
                        <use fill="#FFFFFF" fill-rule="evenodd" xlink:href="#path-1"></use>
                    </g>
                    <g id="编组-4" transform="translate(14.000000, 20.000000)">
                        <path d="M76.349884,56.4476133 C74.2321214,67.0540675 74.2321214,67.0540675 63.7173941,65.5834554 L63.5232351,65.5505212 L50.8975711,63.2941365 C44.8754678,62.2179014 40.8543955,56.3974689 41.9162548,50.2938366 L42.1186407,49.1305099 C43.1805,43.0268776 48.9231864,38.9513669 54.9452897,40.027602 L55.5192847,40.1295833 L55.6203764,39.5485016 C56.6822357,33.4448693 62.4249221,29.3693586 68.4470254,30.4455936 L69.594813,30.6507195 C75.6169163,31.7269546 79.6379886,37.5473871 78.5761293,43.6510193 L76.349884,56.4476133 Z" id="路径" fill="#F85F69" transform="translate(60.246192, 48.273228) rotate(56.000000) translate(-60.246192, -48.273228) "></path>
                        <path d="M66.3802947,51.3155591 C62.746192,69.2732285 62.746192,69.2732285 44.7028109,66.7833516 L44.369632,66.727591 L22.7038614,62.9073311 C12.3698697,61.0851696 5.46966793,51.2306602 7.29182949,40.8966684 L7.63912585,38.9270529 C9.46128742,28.5930612 19.3157968,21.6928594 29.6497885,23.515021 L30.6347699,23.6876844 L30.8082445,22.7038614 C32.630406,12.3698697 42.4849154,5.46966793 52.8189071,7.29182949 L54.7885227,7.63912585 C65.1225144,9.46128742 72.0227161,19.3157968 70.2005546,29.6497885 L66.3802947,51.3155591 Z" id="路径" fill="#F85F69" transform="translate(38.746192, 37.475599) rotate(14.000000) translate(-38.746192, -37.475599) "></path>
                        <path d="M64.1178992,39.2676854 L64.3543269,39.8005761 L64.8925952,39.5594482 C66.771499,38.7177563 68.7537811,38.429865 70.6540768,38.6259629 L62.2112544,57.5897476 C59.7603118,62.7420256 58.0726135,66.2898407 56.3999643,68.5280573 C52.173672,69.7083924 51.2694417,67.8575733 47.8364351,60.8307415 L47.7551664,60.6513598 L42.5656124,48.9224556 C40.0903343,43.3280827 42.6671365,36.7397182 48.3210611,34.2069316 L49.3986755,33.7241931 C55.0526002,31.1914064 61.6426211,33.6733125 64.1178992,39.2676854 Z" id="形状结合" fill="#F33B3D"></path>
                    </g>
                </g>
            </g>
        </g>
    </g>
</svg>