<?xml version="1.0" encoding="UTF-8"?>
<svg width="48px" height="48px" viewBox="0 0 48 48" version="1.1" xmlns="http://www.w3.org/2000/svg" xmlns:xlink="http://www.w3.org/1999/xlink">
    <title>首页</title>
    <g id="页面-1" stroke="none" stroke-width="1" fill="none" fill-rule="evenodd">
        <g id="首页" transform="translate(-51.000000, -2151.000000)">
            <g id="首页" transform="translate(51.000000, 2151.000000)">
                <rect id="矩形" x="0" y="0" width="48" height="48"></rect>
                <g id="编组-14" transform="translate(6.000000, 6.000000)">
                    <rect id="矩形" fill="#00CE3F" x="16" y="18.9325537" width="4" height="9" rx="2"></rect>
                    <path d="M20.4557625,0.84259113 L34.4557625,11.73148 C35.4301086,12.4893048 36,13.6545272 36,14.8888889 L36,31.9325537 C36,34.1416927 34.209139,35.9325537 32,35.9325537 L4,35.9325537 C1.790861,35.9325537 0,34.1416927 0,31.9325537 L0,14.8888889 C0,13.6545272 0.569891376,12.4893048 1.54423755,11.73148 L15.5442375,0.84259113 C16.9886795,-0.28086371 19.0113205,-0.28086371 20.4557625,0.84259113 Z M18.6139406,3.21064778 C18.2889412,2.95787044 17.8468564,2.93259271 17.4984399,3.13481458 L17.3860594,3.21064778 L3.38605939,14.0995367 C3.17727092,14.2619277 3.04277007,14.4991468 3.00860225,14.7579406 L3,14.8888889 L3,31.9325537 C3,32.4453895 3.38604019,32.8680608 3.88337887,32.9258259 L4,32.9325537 L32,32.9325537 C32.5128358,32.9325537 32.9355072,32.5465135 32.9932723,32.0491748 L33,31.9325537 L33,14.8888889 C33,14.6243828 32.8953261,14.3725758 32.7120236,14.1867213 L32.6139406,14.0995367 L18.6139406,3.21064778 Z" id="矩形" fill="#021408" fill-rule="nonzero"></path>
                </g>
            </g>
        </g>
    </g>
</svg>