<?xml version="1.0" encoding="UTF-8"?>
<svg width="48px" height="48px" viewBox="0 0 48 48" version="1.1" xmlns="http://www.w3.org/2000/svg" xmlns:xlink="http://www.w3.org/1999/xlink">
    <title>学习</title>
    <defs>
        <linearGradient x1="90.1846568%" y1="75.9091695%" x2="11.4480019%" y2="20.0989087%" id="linearGradient-1">
            <stop stop-color="#C9FFE4" offset="0%"></stop>
            <stop stop-color="#00CE3F" offset="100%"></stop>
        </linearGradient>
    </defs>
    <g id="页面-1" stroke="none" stroke-width="1" fill="none" fill-rule="evenodd">
        <g id="个人中心" transform="translate(-60.000000, -550.000000)">
            <g id="信息展示:40/卡片列表(圆角)CardList:3/基础:1/样式:单行不带图备份" transform="translate(30.000000, 526.000000)">
                <g id="学习" transform="translate(30.000000, 24.000000)">
                    <rect id="矩形" x="0" y="0" width="48" height="48" rx="10"></rect>
                    <circle id="椭圆形" fill="url(#linearGradient-1)" opacity="0.396947952" cx="24" cy="34" r="12"></circle>
                    <path d="M38,3.46691919 C42.418278,3.46691919 46,7.04864119 46,11.4669192 L46,11.4669192 L46,29 C46,32.5555556 43.6533333,35.6844444 40.24,36.68 L40.24,36.68 L24.56,41.2533333 C24.5540674,41.2550637 24.5481277,41.2567662 24.5421812,41.258441 C24.4927116,41.2728938 24.4416618,41.2851209 24.3898939,41.2953503 C24.3785658,41.2972084 24.3679326,41.2992282 24.3572845,41.3011615 C24.3143735,41.3092654 24.2703106,41.3157267 24.2258059,41.3207275 C24.151055,41.3290465 24.0756041,41.3333333 24,41.3333333 L24.1674661,41.3264216 C24.1122502,41.330999 24.0563977,41.3333333 24,41.3333333 L23.8507377,41.3278476 C23.8446622,41.3273994 23.8385942,41.326924 23.8325339,41.3264216 L24,41.3333333 C23.9243959,41.3333333 23.848945,41.3290465 23.7740063,41.320524 C23.7296894,41.3157267 23.6856265,41.3092654 23.6420547,41.3013927 C23.6323823,41.2992854 23.6220631,41.2973278 23.6117589,41.2952887 C23.5559195,41.2846719 23.5015523,41.2715274 23.4481012,41.2562144 L23.4479576,41.2556364 C23.4377987,41.2532628 23.4275302,41.2502307 23.4172965,41.2471188 L7.76,36.68 C4.34666667,35.6844444 2,32.5555556 2,29 L2,11.4669192 C2,7.04864119 5.581722,3.46691919 10,3.46691919 C11.1504629,3.46691919 12.2873923,3.7150548 13.3332377,4.19440061 L23.6666188,8.93053364 C23.7814734,8.98317531 23.8929984,9.04083445 24.0009823,9.10318139 L24.1426985,9.02410382 L24.1426985,9.02410382 L24.3333812,8.93053364 L34.6667623,4.19440061 C35.7126077,3.7150548 36.8495371,3.46691919 38,3.46691919 Z M38,7.46691919 C37.4247685,7.46691919 36.8563039,7.590987 36.3333812,7.8306599 L36.3333812,7.8306599 L26,12.5667929 L26,36.667 L39.12,32.84 L39.3145198,32.7778789 C40.9151874,32.2215648 42,30.7094017 42,29 L42,29 L42,11.4669192 L41.9951047,11.2672788 C41.8910789,9.15088766 40.1421954,7.46691919 38,7.46691919 Z M10,7.46691919 C7.85780461,7.46691919 6.10892112,9.15088766 6.00489531,11.2672788 L6,11.4669192 L6,29 C6,30.7094017 7.08481262,32.2215648 8.6854802,32.7778789 L8.88,32.84 L22,36.666 L22,12.5667929 L22,12.5667929 L11.6666188,7.8306599 C11.2183994,7.62522598 10.7367205,7.50472642 10.2460004,7.4744905 L10,7.46691919 Z M37.4462131,23.0780956 C38.4400519,22.7905642 39.5032867,23.312762 39.8726584,24.2977531 C40.2604986,25.3319938 39.7364875,26.4848181 38.7022469,26.8726584 L38.7022469,26.8726584 L30.7022469,29.8726584 L30.5537869,29.9219044 C29.5599481,30.2094358 28.4967133,29.687238 28.1273416,28.7022469 C27.7395014,27.6680062 28.2635125,26.5151819 29.2977531,26.1273416 L29.2977531,26.1273416 L37.2977531,23.1273416 Z M10.5537869,23.0780956 L10.7022469,23.1273416 L18.7022469,26.1273416 C19.7364875,26.5151819 20.2604986,27.6680062 19.8726584,28.7022469 C19.5032867,29.687238 18.4400519,30.2094358 17.4462131,29.9219044 L17.2977531,29.8726584 L9.29775312,26.8726584 C8.26351247,26.4848181 7.7395014,25.3319938 8.12734164,24.2977531 C8.49671331,23.312762 9.5599481,22.7905642 10.5537869,23.0780956 Z M10.5537869,15.0780956 L10.7022469,15.1273416 L18.7022469,18.1273416 C19.7364875,18.5151819 20.2604986,19.6680062 19.8726584,20.7022469 C19.5032867,21.687238 18.4400519,22.2094358 17.4462131,21.9219044 L17.2977531,21.8726584 L9.29775312,18.8726584 C8.26351247,18.4848181 7.7395014,17.3319938 8.12734164,16.2977531 C8.49671331,15.312762 9.5599481,14.7905642 10.5537869,15.0780956 Z M37.4462131,15.0780956 C38.4400519,14.7905642 39.5032867,15.312762 39.8726584,16.2977531 C40.2604986,17.3319938 39.7364875,18.4848181 38.7022469,18.8726584 L38.7022469,18.8726584 L30.7022469,21.8726584 L30.5537869,21.9219044 C29.5599481,22.2094358 28.4967133,21.687238 28.1273416,20.7022469 C27.7395014,19.6680062 28.2635125,18.5151819 29.2977531,18.1273416 L29.2977531,18.1273416 L37.2977531,15.1273416 Z" id="形状结合" fill="#021408" fill-rule="nonzero"></path>
                </g>
            </g>
        </g>
    </g>
</svg>