<?xml version="1.0" encoding="UTF-8"?>
<svg width="32px" height="32px" viewBox="0 0 32 32" version="1.1" xmlns="http://www.w3.org/2000/svg" xmlns:xlink="http://www.w3.org/1999/xlink">
    <title>点赞</title>
    <g id="页面-1" stroke="none" stroke-width="1" fill="none" fill-rule="evenodd">
        <g id="首页" transform="translate(-418.000000, -1788.000000)">
            <g id="最新动态" transform="translate(30.000000, 1322.000000)">
                <g id="点赞" transform="translate(388.000000, 466.000000)">
                    <rect id="矩形" x="0" y="0" width="32" height="32"></rect>
                    <g id="编组-9" transform="translate(1.000000, 1.000000)">
                        <rect id="矩形" fill="#1FCE3F" x="5" y="13" width="3" height="13" rx="1.5"></rect>
                        <path d="M15,0 C17.209139,0 19,1.790861 19,4 L19,8.41982883 C19,8.97956092 19,9 19,10 L25.6238774,10 C27.8330164,10 29.6238774,11.790861 29.6238774,14 C29.6238774,14.3892983 29.5670466,14.7765114 29.4551825,15.1493915 L25.8551825,27.1493915 C25.3476018,28.8413274 23.7903103,30 22.0238774,30 L4,30 C1.790861,30 0,28.209139 0,26 L0,14 C0,11.790861 1.790861,10 4,10 L9,10 L9.43041309,9.67724861 C10.1926578,9.09060753 10.7931888,8.53180028 11,8 C11.4123403,6.93969644 11.5696438,5.51505467 11.4719106,3.72607469 C11.3654802,1.77757346 12.8587587,0.111708799 14.807259,0.00526086631 C14.8714462,0.0017542751 14.9357171,0 15,0 Z M15,2 L14.9163577,2.00228302 C14.0707805,2.04847749 13.4227463,2.77140594 13.4689327,3.61697597 C13.5809187,5.66684948 13.3936371,7.36299267 12.8640093,8.72489252 C12.4827812,9.70519339 12,12 10,12 C8.66666667,12 6.66666667,12 4,12 C2.9456382,12 2.08183488,12.8158778 2.00548574,13.8507377 L2,14 L2,26 C2,27.0543618 2.81587779,27.9181651 3.85073766,27.9945143 L4,28 L22.0238774,28 C22.8518928,28 23.5880004,27.4908177 23.8858962,26.7301138 L23.93953,26.5746958 L27.53953,14.5746958 C27.595462,14.3882557 27.6238774,14.1946491 27.6238774,14 C27.6238774,12.9456382 26.8079996,12.0818349 25.7734478,12.0054857 L25.6242316,12 L18.4062574,12.0012782 C17.3016853,12.0014786 16.4060941,11.1062045 16.4058985,10.0016324 C16.4058645,9.81004356 16.4333597,9.61944377 16.4875412,9.43567579 C16.8040873,8.36204165 16.9749069,7.55014972 17,7 C17.0422312,6.07410862 17.0422312,5.07410862 17,4 C17,2.8954305 16.1045695,2 15,2 Z" id="路径" fill="#4D4D4D" fill-rule="nonzero"></path>
                    </g>
                </g>
            </g>
        </g>
    </g>
</svg>