<?xml version="1.0" encoding="UTF-8"?>
<svg width="48px" height="48px" viewBox="0 0 48 48" version="1.1" xmlns="http://www.w3.org/2000/svg" xmlns:xlink="http://www.w3.org/1999/xlink">
    <title>足迹</title>
    <defs>
        <rect id="path-1" x="0" y="0" width="48" height="48" rx="10.9090909"></rect>
        <linearGradient x1="90.1846568%" y1="75.9091695%" x2="11.4480019%" y2="20.0989087%" id="linearGradient-3">
            <stop stop-color="#C9FFE4" offset="0%"></stop>
            <stop stop-color="#00CE3F" offset="100%"></stop>
        </linearGradient>
    </defs>
    <g id="页面-1" stroke="none" stroke-width="1" fill="none" fill-rule="evenodd">
        <g id="个人中心" transform="translate(-60.000000, -676.000000)">
            <g id="信息展示:40/卡片列表(圆角)CardList:3/基础:1/样式:单行不带图备份-2" transform="translate(30.000000, 652.000000)">
                <g id="足迹" transform="translate(30.000000, 24.000000)">
                    <mask id="mask-2" fill="white">
                        <use xlink:href="#path-1"></use>
                    </mask>
                    <g id="蒙版"></g>
                    <circle id="椭圆形" fill="url(#linearGradient-3)" opacity="0.396947952" mask="url(#mask-2)" cx="12" cy="36" r="12"></circle>
                    <path d="M38.1421356,6.85786438 C41.9359237,10.6516525 43.8869547,15.590383 43.9952287,20.5617899 L44,21 L44,37 C44,39.209139 42.209139,41 40,41 L24,41 C18.881887,41 13.7632345,39.0475057 9.85786438,35.1421356 C2.04737854,27.3316498 2.04737854,14.6683502 9.85786438,6.85786438 C17.6683502,-0.952621458 30.3316498,-0.952621458 38.1421356,6.85786438 Z M35.3137085,9.6862915 C29.0653198,3.43790283 18.9346802,3.43790283 12.6862915,9.6862915 C6.43790283,15.9346802 6.43790283,26.0653198 12.6862915,32.3137085 C15.6321001,35.2595171 19.5202105,36.8926854 23.5922147,36.9948908 L24,37 L40,37 L40,21 C40,16.9166273 38.4619977,12.9918097 35.6039092,9.98398884 L35.3137085,9.6862915 Z" id="形状结合" fill="#021408" fill-rule="nonzero" mask="url(#mask-2)" transform="translate(24.000000, 21.000000) rotate(-315.000000) translate(-24.000000, -21.000000) "></path>
                    <path d="M23.5,13 C28.1944204,13 32,16.8055796 32,21.5 C32,26.1944204 28.1944204,30 23.5,30 C18.8055796,30 15,26.1944204 15,21.5 C15,16.8055796 18.8055796,13 23.5,13 Z M23.5,17 C21.0147186,17 19,19.0147186 19,21.5 C19,23.9852814 21.0147186,26 23.5,26 C25.9852814,26 28,23.9852814 28,21.5 C28,19.0147186 25.9852814,17 23.5,17 Z" id="椭圆形" fill="#021408" fill-rule="nonzero" mask="url(#mask-2)"></path>
                </g>
            </g>
        </g>
    </g>
</svg>