<?xml version="1.0" encoding="UTF-8"?>
<svg width="48px" height="48px" viewBox="0 0 48 48" version="1.1" xmlns="http://www.w3.org/2000/svg" xmlns:xlink="http://www.w3.org/1999/xlink">
    <title>我的</title>
    <g id="页面-1" stroke="none" stroke-width="1" fill="none" fill-rule="evenodd">
        <g id="首页" transform="translate(-651.000000, -2151.000000)">
            <g id="我的" transform="translate(651.000000, 2151.000000)">
                <rect id="矩形" x="0" y="0" width="48" height="48"></rect>
                <g id="编组-23" transform="translate(7.000000, 6.500000)" fill-rule="nonzero">
                    <path d="M16.5,0 C23.4035594,0 29,5.59644063 29,12.5 C29,19.4035594 23.4035594,25 16.5,25 C9.59644063,25 4,19.4035594 4,12.5 C4,5.59644063 9.59644063,0 16.5,0 Z M16.5,3 C11.2532949,3 7,7.25329488 7,12.5 C7,17.7467051 11.2532949,22 16.5,22 C21.7467051,22 26,17.7467051 26,12.5 C26,7.25329488 21.7467051,3 16.5,3 Z" id="椭圆形" fill="#00CE3F"></path>
                    <path d="M17.0030701,22.135 C25.3058789,22.135 31.9658531,27.2282604 33.294574,34.9145075 L33.3497235,35.255281 L30.6502765,35.662572 C29.6723529,29.1810813 24.1305915,24.865 17.0030701,24.865 C9.97783788,24.865 4.49238615,29.0615946 3.4004184,35.3871889 L3.35026982,35.699991 L0.649730179,35.300009 C1.8194512,27.4024597 8.56242781,22.135 17.0030701,22.135 Z" id="路径" fill="#021408"></path>
                </g>
            </g>
        </g>
    </g>
</svg>