<?xml version="1.0" encoding="UTF-8"?>
<svg width="130px" height="130px" viewBox="0 0 130 130" version="1.1" xmlns="http://www.w3.org/2000/svg" xmlns:xlink="http://www.w3.org/1999/xlink">
    <title>党建服务</title>
    <defs>
        <circle id="path-1" cx="57" cy="57" r="57"></circle>
        <filter x="-11.4%" y="-9.6%" width="122.8%" height="122.8%" filterUnits="objectBoundingBox" id="filter-2">
            <feOffset dx="0" dy="2" in="SourceAlpha" result="shadowOffsetOuter1"></feOffset>
            <feGaussianBlur stdDeviation="4" in="shadowOffsetOuter1" result="shadowBlurOuter1"></feGaussianBlur>
            <feColorMatrix values="0 0 0 0 0   0 0 0 0 0   0 0 0 0 0  0 0 0 0.102135291 0" type="matrix" in="shadowBlurOuter1"></feColorMatrix>
        </filter>
    </defs>
    <g id="页面-1" stroke="none" stroke-width="1" fill="none" fill-rule="evenodd">
        <g id="首页" transform="translate(-568.000000, -702.000000)">
            <g id="编组-18" transform="translate(30.000000, 562.000000)">
                <g id="党建服务" transform="translate(546.000000, 146.000000)">
                    <g id="椭圆形">
                        <use fill="black" fill-opacity="1" filter="url(#filter-2)" xlink:href="#path-1"></use>
                        <use fill="#FFFFFF" fill-rule="evenodd" xlink:href="#path-1"></use>
                    </g>
                    <g id="编组-6" transform="translate(29.000000, 26.000000)">
                        <path d="M44,54.75 L37.8884876,57.9630122 C36.9107985,58.4770138 35.7015442,58.1011208 35.1875425,57.1234316 C34.9828644,56.7341106 34.9122351,56.2881745 34.9865887,55.8546592 L36.1537837,49.0493902 L36.1537837,49.0493902 L31.2094664,44.2298719 C30.4184992,43.4588695 30.4023146,42.192643 31.173317,41.4016758 C31.4803342,41.0867085 31.8826191,40.8817342 32.3178931,40.8184852 L39.1507717,39.8256098 L39.1507717,39.8256098 L42.2065278,33.6339715 C42.6953724,32.6434642 43.8946241,32.2367862 44.8851314,32.7256308 C45.2795566,32.9202912 45.5988117,33.2395463 45.7934722,33.6339715 L48.8492283,39.8256098 L48.8492283,39.8256098 L55.6821069,40.8184852 C56.7751966,40.9773204 57.5325595,41.9922061 57.3737243,43.0852958 C57.3104752,43.5205699 57.1055009,43.9228547 56.7905336,44.2298719 L51.8462163,49.0493902 L51.8462163,49.0493902 L53.0134113,55.8546592 C53.2001333,56.9433321 52.4689576,57.977244 51.3802847,58.163966 C50.9467695,58.2383197 50.5008333,58.1676903 50.1115124,57.9630122 L44,54.75 L44,54.75 Z" id="星形" fill="#FFAC3E"></path>
                        <path d="M41,0 C46.5228475,-1.01453063e-15 51,4.4771525 51,10 L51,50 C51,55.5228475 46.5228475,60 41,60 L10,60 C4.4771525,60 -2.87635993e-15,55.5228475 0,50 L0,10 C-6.76353751e-16,4.4771525 4.4771525,-2.53818305e-15 10,0 L41,0 Z M25,33 L14,33 C12.3431458,33 11,34.3431458 11,36 C11,37.6568542 12.3431458,39 14,39 L14,39 L25,39 C26.6568542,39 28,37.6568542 28,36 C28,34.3431458 26.6568542,33 25,33 L25,33 Z M36,22 L14,22 C12.3431458,22 11,23.3431458 11,25 C11,26.6568542 12.3431458,28 14,28 L14,28 L36,28 C37.6568542,28 39,26.6568542 39,25 C39,23.3431458 37.6568542,22 36,22 L36,22 Z M36,11 L14,11 C12.3431458,11 11,12.3431458 11,14 C11,15.6568542 12.3431458,17 14,17 L14,17 L36,17 C37.6568542,17 39,15.6568542 39,14 C39,12.3431458 37.6568542,11 36,11 L36,11 Z" id="形状结合" fill="#FFAC3E"></path>
                        <path d="M44.8851314,32.7256308 C45.2795566,32.9202912 45.5988117,33.2395463 45.7934722,33.6339715 L48.8492283,39.8256098 L50.9995281,40.1383284 L51,50 C51,52.7012474 49.9289629,55.1523408 48.1883859,56.9517827 L44,54.75 L37.8884876,57.9630122 C36.9107985,58.4770138 35.7015442,58.1011208 35.1875425,57.1234316 C34.9828644,56.7341106 34.9122351,56.2881745 34.9865887,55.8546592 L36.1537837,49.0493902 L31.2094664,44.2298719 C30.4184992,43.4588695 30.4023146,42.192643 31.173317,41.4016758 C31.4803342,41.0867085 31.8826191,40.8817342 32.3178931,40.8184852 L39.1507717,39.8256098 L42.2065278,33.6339715 C42.6953724,32.6434642 43.8946241,32.2367862 44.8851314,32.7256308 Z" id="形状结合" fill="#FF7C0E"></path>
                    </g>
                </g>
            </g>
        </g>
    </g>
</svg>