<?xml version="1.0" encoding="UTF-8"?>
<svg width="49px" height="48px" viewBox="0 0 49 48" version="1.1" xmlns="http://www.w3.org/2000/svg" xmlns:xlink="http://www.w3.org/1999/xlink">
    <title>商城</title>
    <g id="页面-1" stroke="none" stroke-width="1" fill="none" fill-rule="evenodd">
        <g id="首页" transform="translate(-504.000000, -2151.000000)">
            <g id="商城" transform="translate(504.250000, 2151.000000)">
                <rect id="矩形" x="0" y="0" width="48" height="48"></rect>
                <g id="编组-21" transform="translate(9.109533, 5.500000)" fill-rule="nonzero">
                    <path d="M25.9956968,8.5 C27.6108799,8.5 28.936137,9.77877144 28.9937854,11.3929254 L29.7794996,33.3929254 C29.8386353,35.048724 28.5442843,36.4389529 26.8884857,36.4980886 L26.7814111,36.5 L2.9995221,36.5 C1.40184122,36.5 0.0958612233,35.25108 0.00461479611,33.6762728 L0,33.4464542 L0.787147825,11.3929254 C0.844796182,9.77877144 2.17005331,8.5 3.78523639,8.5 L25.9956968,8.5 Z M25.9956968,11.5 L3.78523639,11.5 L2.9995221,33.5 L26.7814111,33.5 L25.9956968,11.5 Z" id="矩形" fill="#021408"></path>
                    <path d="M14.8904666,0 C18.9804118,0 22.2620843,3.46993804 22.3867899,7.74746912 L22.3904666,8 L22.3904666,14.5 C22.3904666,15.3284271 21.7188937,16 20.8904666,16 C20.1107705,16 19.4700179,15.4051119 19.3973332,14.64446 L19.3904666,14.5 L19.3904666,8 C19.3904666,5.21295013 17.3477434,3 14.8904666,3 C12.5014475,3 10.5042711,5.09171598 10.3951602,7.7691099 L10.3904666,8 L10.3904666,14.5 C10.3904666,15.3284271 9.71889371,16 8.89046659,16 C8.11077047,16 7.47001791,15.4051119 7.39733317,14.64446 L7.39046659,14.5 L7.39046659,8 C7.39046659,3.60734812 10.7203264,0 14.8904666,0 Z" id="路径" fill="#00CE3F"></path>
                </g>
            </g>
        </g>
    </g>
</svg>