<?xml version="1.0" encoding="UTF-8"?>
<svg width="57px" height="56px" viewBox="0 0 57 56" version="1.1" xmlns="http://www.w3.org/2000/svg" xmlns:xlink="http://www.w3.org/1999/xlink">
    <title>话题</title>
    <g id="页面-1" stroke="none" stroke-width="1" fill="none" fill-rule="evenodd">
        <g id="首页" transform="translate(-59.000000, -1085.000000)">
            <g id="热门话题" transform="translate(30.000000, 942.000000)">
                <g id="编组-7" transform="translate(29.000000, 143.000000)">
                    <g id="话题" transform="translate(0.500000, 0.000000)">
                        <rect id="矩形" x="0" y="0" width="56" height="56"></rect>
                        <g id="编组-8" transform="translate(1.462963, 0.000000)">
                            <path d="M36.6615385,22 L45.5230769,22 C49.6524675,22 53,25.3475325 53,29.4769231 L53,48.5230769 C53,52.6524675 49.6524675,56 45.5230769,56 L36.6615385,56 C35.7438961,56 35,55.2561039 35,54.3384615 L35,23.6615385 C35,22.7438961 35.7438961,22 36.6615385,22 Z" id="矩形" fill="#80B7F9"></path>
                            <path d="M37.6923077,0 C42.2805195,3.23230985e-15 46,3.71948054 46,8.30769231 L46,47.6923077 C46,52.2805195 42.2805195,56 37.6923077,56 L8.30769231,56 C3.71948054,56 -2.99081979e-15,52.2805195 0,47.6923077 L0,8.30769231 C-5.61893886e-16,3.71948054 3.71948054,2.61919767e-15 8.30769231,0 L37.6923077,0 Z M25.7338171,35.3230769 L13.3227866,35.3230769 C11.7169125,35.3230769 10.4150943,36.6248951 10.4150943,38.2307692 L10.4150943,38.2307692 L10.4150943,38.4461538 C10.4150943,40.052028 11.7169125,41.3538462 13.3227866,41.3538462 L13.3227866,41.3538462 L25.7338171,41.3538462 C27.3396912,41.3538462 28.6415094,40.052028 28.6415094,38.4461538 L28.6415094,38.4461538 L28.6415094,38.2307692 C28.6415094,36.6248951 27.3396912,35.3230769 25.7338171,35.3230769 L25.7338171,35.3230769 Z M25.7338171,23.2615385 L13.3227866,23.2615385 C11.7169125,23.2615385 10.4150943,24.5633567 10.4150943,26.1692308 L10.4150943,26.1692308 L10.4150943,26.3846154 C10.4150943,27.9904895 11.7169125,29.2923077 13.3227866,29.2923077 L13.3227866,29.2923077 L25.7338171,29.2923077 C27.3396912,29.2923077 28.6415094,27.9904895 28.6415094,26.3846154 L28.6415094,26.3846154 L28.6415094,26.1692308 C28.6415094,24.5633567 27.3396912,23.2615385 25.7338171,23.2615385 L25.7338171,23.2615385 Z M34.4130624,10.3384615 L13.3227866,10.3384615 C11.7169125,10.3384615 10.4150943,11.6402797 10.4150943,13.2461538 L10.4150943,13.2461538 L10.4150943,13.4615385 C10.4150943,15.0674126 11.7169125,16.3692308 13.3227866,16.3692308 L13.3227866,16.3692308 L34.4130624,16.3692308 C36.0189365,16.3692308 37.3207547,15.0674126 37.3207547,13.4615385 L37.3207547,13.4615385 L37.3207547,13.2461538 C37.3207547,11.6402797 36.0189365,10.3384615 34.4130624,10.3384615 L34.4130624,10.3384615 Z" id="形状结合" fill="#80B7F9"></path>
                            <path d="M46,22 L46,47.6923077 C46,52.2805195 42.2805195,56 37.6923077,56 L37.6615385,56 C36.7438961,56 36,55.2561039 36,54.3384615 L36,23.6615385 C36,22.7438961 36.7438961,22 37.6615385,22 L46,22 Z" id="形状结合" fill="#3E8BF8"></path>
                        </g>
                    </g>
                </g>
            </g>
        </g>
    </g>
</svg>